<?xml version="1.0" encoding="iso-8859-1"?>
<!-- Generator: Adobe Illustrator 19.0.0, SVG Export Plug-In . SVG Version: 6.00 Build 0)  -->
<svg version="1.1" id="Layer_1" xmlns="http://www.w3.org/2000/svg" xmlns:xlink="http://www.w3.org/1999/xlink" x="0px" y="0px"
	 viewBox="0 0 512 512" style="enable-background:new 0 0 512 512;" xml:space="preserve">
<g>
	<g>
		<path d="M409.064,216.062c-7.758,0-15.315,0.868-22.587,2.503l-13.88-34.34V90.064h-77.409v33.391h44.018v58.015l-87.25,105.715
			L196.58,157.014h30.056v-33.391H116.033v33.391h44.26l13.61,31.994l-26.218,37.3c-13.538-6.563-28.72-10.246-44.747-10.246
			C46.177,216.062,0,262.239,0,318.999s46.177,102.936,102.937,102.936c51.075,0,93.575-37.394,101.576-86.241h50.699
			l95.716-115.971l4.602,11.385c-29.605,18.098-49.405,50.725-49.405,87.89c0,56.76,46.177,102.936,102.936,102.936
			S512,375.759,512,318.999S465.823,216.062,409.064,216.062z M102.937,388.545c-38.348,0-69.545-31.198-69.545-69.545
			s31.198-69.545,69.545-69.545c8.87,0,17.347,1.687,25.154,4.727l-57.297,81.514h99.649
			C162.945,366.003,135.53,388.545,102.937,388.545z M135.079,302.304l20.31-28.893c7.122,8.184,12.368,18.036,15.054,28.893
			H135.079z M204.513,302.304c-3.612-22.049-14.251-41.761-29.538-56.756l14.315-20.366l32.808,77.123H204.513z M409.064,388.545
			c-38.348,0-69.545-31.197-69.545-69.545c0-23.13,11.36-43.646,28.783-56.297l25.284,62.553l30.957-12.513l-25.296-62.583
			c3.209-0.455,6.484-0.706,9.817-0.706c38.348,0,69.545,31.197,69.545,69.545S447.411,388.545,409.064,388.545z"/>
	</g>
</g>
<g>
</g>
<g>
</g>
<g>
</g>
<g>
</g>
<g>
</g>
<g>
</g>
<g>
</g>
<g>
</g>
<g>
</g>
<g>
</g>
<g>
</g>
<g>
</g>
<g>
</g>
<g>
</g>
<g>
</g>
</svg>
